<svg width="179" height="48" viewBox="0 0 179 48" fill="none" xmlns="http://www.w3.org/2000/svg">
<path d="M25.8001 35.7873C22.3001 34.4873 18.7001 34.2873 15.4001 35.1873C13.1001 35.7873 10.9001 36.9873 8.90012 38.4873L7.50009 39.6873L7.1001 40.0873L8.00009 40.8873C8.10009 40.8873 8.1001 40.9873 8.2001 41.0873C8.4001 41.2873 8.60012 41.3873 8.90012 41.5873L9.50009 41.9873L10.1001 41.4873C10.2001 41.3873 10.4001 41.1873 10.6001 41.0873C12.4001 39.5873 14.4001 38.5873 16.5001 38.0873C19.2001 37.3873 22.1001 37.4873 25.0001 38.5873C27.4001 39.4873 32.3001 40.5873 38.2001 38.0873L38.4001 37.9873L38.7001 37.6873C38.7001 37.5873 38.8001 37.5873 38.9001 37.4873C39.4001 36.8873 39.9001 36.2873 40.3001 35.5873L42.3001 32.4873L39.1001 34.2873C34.4001 36.8873 30.1001 37.3873 25.8001 35.7873Z" fill="#099250"/>
<path d="M12.1 24.9876C14.8 24.2876 17.7 24.3876 20.6 25.4876C23.8 26.6876 32 28.3876 41.2 20.0876L42.7 18.5876L42.8 18.4876L43.2 18.0876L43 17.5876C42.9 17.1876 42.7 16.6876 42.5 16.1876L42 14.7876L41 15.7876C40.9 15.9876 40.7 16.0876 40.5 16.2876C36.1 20.7876 29.3 25.3876 21.5 22.5876C18 21.2876 14.4 21.0876 11.1 21.9876C7.90001 22.8876 5.1 24.5876 2.5 26.9876V26.8876L1 28.4876C1 28.5876 0.900018 28.5876 0.800018 28.6876L0.5 28.9876L0.600006 29.3876C0.700006 29.8876 0.9 30.3876 1 30.8876L1.60001 32.4876L2.60001 31.1876C2.70001 30.9876 2.9 30.8876 3 30.6876C5.1 28.7876 8.00001 26.0876 12.1 24.9876Z" fill="#099250"/>
<path d="M2.40002 23.1876C4.70002 20.7876 7.30001 19.2876 10.1 18.4876C12.8 17.7876 15.7 17.8876 18.6 18.9876C27.6 22.2876 35.4 16.8876 38.8 13.9876L40.1 12.6876L40.6 12.2876L40.2 11.6876C39.9 11.3876 39.7 10.9876 39.4 10.5876L38.8 9.7876L38.1 10.4876C38 10.5876 37.8 10.7876 37.7 10.8876C33.5 14.8876 27 18.9876 19.6 16.1876C16.1 14.8876 12.5 14.6876 9.20001 15.5876C7.10001 16.1876 5.10001 17.1876 3.10001 18.4876L1 20.1876C0.8 20.3876 0.7 20.4876 0.5 20.6876L0.300018 20.8876V21.1876C0.200018 21.8876 0.200006 22.5876 0.100006 23.1876L0 25.6876L1.70001 23.8876C1.90001 23.6876 2.10002 23.3876 2.40002 23.1876Z" fill="#099250"/>
<path d="M28.6999 42.5875L28.4999 43.1875L28.6999 42.5875C28.3999 42.4875 28.1999 42.3875 27.8999 42.2875C24.3999 40.9875 20.7999 40.7875 17.4999 41.6875C16.7999 41.8875 16.0999 42.0875 15.3999 42.3875L12.9999 43.4875L12.3999 43.7875L14.3999 44.4875C14.9999 44.6875 15.5999 44.8875 16.1999 45.0875L16.4999 45.1875L16.7999 45.0875C17.0999 44.9875 17.3999 44.7875 17.6999 44.7875C17.8999 44.7875 18.0999 44.6875 18.2999 44.5875C20.6999 43.9875 23.2999 43.9875 26.0999 44.8875C26.3999 44.9875 26.5999 45.0875 26.8999 45.1875L27.3999 45.3875L27.6999 45.2875C28.3999 45.0875 29.1999 44.8875 29.7999 44.5875L32.5999 43.5875L29.6999 42.8875C29.3999 42.7875 28.9999 42.6875 28.6999 42.5875Z" fill="#099250"/>
<path d="M43.9998 21.8877L42.4998 23.3877C42.2998 23.5877 42.0998 23.7877 41.8998 23.9877C37.7998 27.8877 31.1998 32.0877 23.7998 29.2877C20.2998 27.9877 16.6998 27.7877 13.3998 28.6877C10.2998 29.5877 7.49979 31.1877 4.99979 33.5877L3.6998 34.9877L3.2998 35.4877L3.6998 36.0877C3.9998 36.4877 4.19981 36.7877 4.39981 37.1877L4.99979 38.0877L5.6998 37.1877C5.7998 37.0877 5.99979 36.8877 6.09979 36.7877C8.49979 34.1877 11.0998 32.5877 14.0998 31.7877C16.7998 31.0877 19.6998 31.1877 22.5998 32.2877C25.0998 33.1877 27.6998 33.4877 30.2998 33.1877C34.8998 32.6877 39.4998 30.0877 42.8998 27.1877C43.0998 26.9877 43.2998 26.8877 43.4998 26.6877L43.7998 26.3877V26.0877C43.7998 25.4877 43.8998 24.7877 43.8998 24.1877L43.9998 21.8877Z" fill="#099250"/>
<path d="M6.00018 12.6879L5.7002 12.0879L6.00018 12.6879C6.60018 12.3879 7.30021 12.1879 7.90021 11.9879C10.6002 11.2879 13.5002 11.3879 16.4002 12.4879C18.3002 13.1879 20.2002 13.4879 22.3002 13.4879C26.5002 13.4879 30.7002 11.9879 34.6002 9.08789L36.1002 7.88788L36.6002 7.48788L35.7002 6.78787C35.4002 6.48787 35.0002 6.18788 34.6002 5.98788L34.0002 5.58789L33.5002 5.98788C33.3002 6.08788 33.2002 6.28788 33.0002 6.38788C27.7002 10.3879 22.4002 11.4879 17.4002 9.58789C13.8002 8.28789 10.2002 7.98789 6.60019 9.08789C6.30019 9.18789 6.00019 9.28788 5.60019 9.38788L5.40021 9.48788L5.10019 9.78787C5.10019 9.88787 5.00021 9.88788 4.90021 9.98788C4.50021 10.5879 4.00019 11.0879 3.60019 11.6879L1.7002 14.5879L4.8002 12.9879C5.3002 12.9879 5.70018 12.7879 6.00018 12.6879Z" fill="#099250"/>
<path d="M14.2 5.88748L14.5 5.98749C15.8 6.48749 17.8 6.98749 20.3 6.98749C22.9 6.98749 25.4 6.38748 27.9 5.38748L31 3.88748L28.9 3.1875C28.3 2.9875 27.7 2.7875 27 2.6875H26.7L26.4 2.78748C26.1 2.88748 25.8 3.0875 25.5 3.1875C22.5 4.2875 19.5 4.4875 16.6 3.6875C16.3 3.5875 16 3.48748 15.7 3.38748L15.4 3.28748L15.1 3.38748C14.5 3.58748 13.9 3.78749 13.3 4.08749L11 5.08749L13.4 5.78748C13.6 5.68748 13.9 5.78748 14.2 5.88748Z" fill="#099250"/>
<path d="M61.2797 33.9093H56.666L63.6958 13.5457H69.2441L76.264 33.9093H71.6504L66.5495 18.1991H66.3904L61.2797 33.9093ZM60.9913 25.9051H71.889V29.2658H60.9913V25.9051Z" fill="#101828"/>
<path d="M82.8713 13.5457V33.9093H78.6355V13.5457H82.8713Z" fill="#101828"/>
<path d="M94.388 18.6366V21.8184H85.1905V18.6366H94.388ZM87.2786 14.9775H91.5144V29.2161C91.5144 29.6072 91.574 29.9122 91.6934 30.1309C91.8127 30.343 91.9784 30.4922 92.1905 30.5784C92.4093 30.6645 92.6612 30.7076 92.9462 30.7076C93.1451 30.7076 93.3439 30.691 93.5428 30.6579C93.7417 30.6181 93.8941 30.5883 94.0002 30.5684L94.6664 33.7204C94.4543 33.7867 94.156 33.8629 93.7715 33.9491C93.387 34.0419 92.9197 34.0982 92.3695 34.1181C91.3487 34.1579 90.4538 34.022 89.6848 33.7104C88.9225 33.3989 88.3292 32.915 87.905 32.2587C87.4808 31.6025 87.272 30.7739 87.2786 29.7729V14.9775Z" fill="#101828"/>
<path d="M102.728 32.8056V18.7261H106.287V32.8056H102.728ZM97.4679 27.5457V23.986H111.547V27.5457H97.4679Z" fill="#101828"/>
<path d="M126.84 19.4022C126.76 18.6001 126.419 17.977 125.816 17.5329C125.213 17.0888 124.394 16.8667 123.36 16.8667C122.657 16.8667 122.064 16.9661 121.58 17.165C121.096 17.3572 120.725 17.6257 120.466 17.9704C120.215 18.3151 120.089 18.7062 120.089 19.1437C120.075 19.5083 120.152 19.8265 120.317 20.0982C120.49 20.37 120.725 20.6053 121.023 20.8042C121.322 20.9964 121.666 21.1655 122.057 21.3113C122.448 21.4505 122.866 21.5698 123.31 21.6693L125.14 22.1068C126.028 22.3056 126.843 22.5708 127.586 22.9022C128.328 23.2337 128.971 23.6413 129.515 24.1252C130.058 24.6091 130.479 25.1792 130.778 25.8355C131.082 26.4917 131.238 27.2441 131.245 28.0926C131.238 29.3388 130.92 30.4193 130.29 31.334C129.667 32.2422 128.766 32.9481 127.586 33.4519C126.412 33.9491 124.997 34.1977 123.34 34.1977C121.696 34.1977 120.264 33.9458 119.045 33.442C117.831 32.9382 116.884 32.1925 116.201 31.2048C115.525 30.2105 115.17 28.9808 115.137 27.5158H119.303C119.349 28.1986 119.545 28.7687 119.89 29.2261C120.241 29.6768 120.708 30.0182 121.292 30.2502C121.882 30.4756 122.548 30.5883 123.29 30.5883C124.019 30.5883 124.653 30.4822 125.189 30.2701C125.733 30.058 126.154 29.763 126.452 29.3852C126.751 29.0073 126.9 28.5731 126.9 28.0826C126.9 27.6252 126.764 27.2408 126.492 26.9292C126.227 26.6176 125.836 26.3525 125.319 26.1337C124.808 25.915 124.182 25.7161 123.439 25.5372L121.222 24.9803C119.505 24.5627 118.15 23.9098 117.155 23.0215C116.161 22.1333 115.667 20.9368 115.674 19.432C115.667 18.1991 115.995 17.1219 116.658 16.2005C117.328 15.2791 118.246 14.5599 119.412 14.0428C120.579 13.5258 121.905 13.2673 123.39 13.2673C124.901 13.2673 126.22 13.5258 127.347 14.0428C128.481 14.5599 129.362 15.2791 129.992 16.2005C130.622 17.1219 130.947 18.1891 130.966 19.4022H126.84Z" fill="#101828"/>
<path d="M138.297 25.0798V33.9093H134.061V13.5457H138.178V21.3312H138.357C138.701 20.4297 139.258 19.7237 140.027 19.2133C140.796 18.6962 141.761 18.4377 142.921 18.4377C143.981 18.4377 144.906 18.6697 145.695 19.1337C146.49 19.5911 147.107 20.2507 147.544 21.1124C147.988 21.9676 148.207 22.9917 148.2 24.1849V33.9093H143.965V24.9406C143.971 23.9993 143.733 23.2668 143.249 22.7431C142.771 22.2194 142.102 21.9576 141.24 21.9576C140.664 21.9576 140.153 22.0802 139.709 22.3255C139.271 22.5708 138.927 22.9287 138.675 23.3994C138.43 23.8634 138.304 24.4235 138.297 25.0798Z" fill="#101828"/>
<path d="M151.534 33.9093V18.6366H155.77V33.9093H151.534ZM153.662 16.6678C153.032 16.6678 152.492 16.459 152.041 16.0414C151.597 15.6172 151.375 15.1101 151.375 14.5201C151.375 13.9368 151.597 13.4363 152.041 13.0187C152.492 12.5944 153.032 12.3823 153.662 12.3823C154.291 12.3823 154.828 12.5944 155.273 13.0187C155.723 13.4363 155.949 13.9368 155.949 14.5201C155.949 15.1101 155.723 15.6172 155.273 16.0414C154.828 16.459 154.291 16.6678 153.662 16.6678Z" fill="#101828"/>
<path d="M168.89 18.6366V21.8184H157.95V18.6366H168.89ZM160.107 33.9093V17.5329C160.107 16.4259 160.323 15.5078 160.754 14.7786C161.191 14.0495 161.788 13.5026 162.544 13.138C163.299 12.7734 164.158 12.5911 165.119 12.5911C165.768 12.5911 166.362 12.6408 166.899 12.7403C167.442 12.8397 167.847 12.9292 168.112 13.0087L167.356 16.1906C167.19 16.1375 166.985 16.0878 166.74 16.0414C166.501 15.995 166.256 15.9718 166.004 15.9718C165.381 15.9718 164.946 16.1176 164.701 16.4093C164.456 16.6944 164.333 17.0954 164.333 17.6124V33.9093H160.107Z" fill="#101828"/>
<path d="M178.087 18.6366V21.8184H168.89V18.6366H178.087ZM170.978 14.9775H175.214V29.2161C175.214 29.6072 175.273 29.9122 175.393 30.1309C175.512 30.343 175.678 30.4922 175.89 30.5784C176.108 30.6645 176.36 30.7076 176.645 30.7076C176.844 30.7076 177.043 30.691 177.242 30.6579C177.441 30.6181 177.593 30.5883 177.699 30.5684L178.366 33.7204C178.153 33.7867 177.855 33.8629 177.471 33.9491C177.086 34.0419 176.619 34.0982 176.069 34.1181C175.048 34.1579 174.153 34.022 173.384 33.7104C172.622 33.3989 172.028 32.915 171.604 32.2587C171.18 31.6025 170.971 30.7739 170.978 29.7729V14.9775Z" fill="#101828"/>
</svg>
