<svg xmlns="http://www.w3.org/2000/svg" viewBox="0 0 410 404" fill="none"><path d="M399.641 59.5246L215.643 388.545c-3.79 6.779-13.561 6.82-17.408.073L10.582 59.5563c-4.198-7.358 2.121-16.297 10.461-14.804l184.213 32.94a11.039 11.039 0 0 0 3.946-.014l180.302-32.91c8.312-1.518 14.652 7.388 10.137 14.752Z" fill="url(#a)"/><path d="M292.965 1.5744 156.801 28.2552a3.4 3.4 0 0 0-2.74 3.14l-8.378 141.425a3.4 3.4 0 0 0 4.139 3.534l37.926-8.755a3.4 3.4 0 0 1 4.097 3.987l-11.264 55.171a3.4 3.4 0 0 0 4.319 3.964l23.422-7.113a3.4 3.4 0 0 1 4.318 3.965l-17.91 86.681c-1.014 4.913 5.502 7.591 8.219 3.371L209.341 312l68.281-136.193a3.4 3.4 0 0 0-3.42-4.872l-39.044 7.534a3.4 3.4 0 0 1-3.964-4.318L297.288 5.6916a3.4 3.4 0 0 0-4.323-4.117Z" fill="url(#b)"/><defs><linearGradient id="a" x1="6.0009" y1="32.9970" x2="235" y2="344" gradientUnits="userSpaceOnUse"><stop stop-color="#41D1FF"/><stop offset="1" stop-color="#BD34FE"/></linearGradient><linearGradient id="b" x1="194.651" y1="8.8182" x2="236.076" y2="292.989" gradientUnits="userSpaceOnUse"><stop stop-color="#FFEA83"/><stop offset=".0833" stop-color="#FFDD35"/><stop offset="1" stop-color="#FFA800"/></linearGradient></defs></svg>
